<?xml version="1.0" encoding="utf-8"?><svg xmlns="http://www.w3.org/2000/svg" xmlns:xlink="http://www.w3.org/1999/xlink"><symbol viewBox="0 0 57 57" id="sale-icon" xmlns="http://www.w3.org/2000/svg"><path d="M23.863 2.657c2.402-2.93 6.872-2.93 9.273 0l3.062 3.735a6.915 6.915 0 005.243 2.534l4.82.072c3.78.057 6.569 3.564 5.782 7.277l-1.002 4.73a6.96 6.96 0 001.295 5.69l2.948 3.827c2.314 3.002 1.318 7.377-2.063 9.074L48.91 41.76a6.94 6.94 0 00-3.628 4.564l-1.143 4.698c-.897 3.687-4.926 5.631-8.355 4.038l-4.374-2.033a6.903 6.903 0 00-5.82 0l-4.374 2.033c-3.43 1.593-7.458-.351-8.355-4.038l-1.143-4.698A6.94 6.94 0 008.09 41.76l-4.31-2.164C.397 37.9-.599 33.524 1.715 30.522l2.948-3.826a6.96 6.96 0 001.294-5.69l-1.001-4.73c-.787-3.714 2.003-7.22 5.782-7.278l4.82-.072a6.915 6.915 0 005.243-2.534l3.061-3.735z" stroke-width=".919"/><path d="M19.741 26.423l.007.004.006.003c.85.44 1.787.656 2.8.656 1.012 0 1.94-.217 2.773-.658h0l.003-.002c.842-.456 1.517-1.06 2.014-1.814h0l.003-.005c.5-.78.75-1.642.75-2.575a4.54 4.54 0 00-.753-2.55c-.497-.754-1.173-1.348-2.016-1.785-.832-.462-1.76-.689-2.775-.689s-1.954.228-2.805.69a5.323 5.323 0 00-1.985 1.784l.371.245-.371-.245a4.54 4.54 0 00-.754 2.55c0 .933.25 1.795.75 2.575h0l.004.005a5.576 5.576 0 001.978 1.811zm-.862 11.085l-.3.344.342.302 1.85 1.632.364.322.3-.382 8.253-10.48 8.437-9.785.299-.347-.346-.3-1.88-1.633-.367-.319-.297.385-8.005 10.326-8.65 9.935zm12.788 1.821h0l.008.005c.833.441 1.761.658 2.774.658 1.012 0 1.94-.217 2.773-.658h0l.003-.002c.842-.456 1.517-1.06 2.014-1.813a4.54 4.54 0 00.754-2.55 4.54 4.54 0 00-.752-2.548 5.177 5.177 0 00-2.017-1.817c-.833-.462-1.762-.69-2.775-.69-1.015 0-1.944.228-2.778.69a5.478 5.478 0 00-2.011 1.811l-.002.003a4.54 4.54 0 00-.754 2.55c0 .934.251 1.788.754 2.55h0l.005.008a5.855 5.855 0 002.004 1.803zm3.973-2.877h0l-.007.009c-.329.404-.715.587-1.184.587-.446 0-.837-.18-1.192-.596a2.195 2.195 0 01-.537-1.484c0-.58.18-1.067.537-1.484h0l.006-.007c.357-.434.747-.618 1.186-.618.445 0 .836.18 1.191.595.356.415.537.911.537 1.514 0 .58-.18 1.067-.537 1.484zM23.742 23.55c-.354.412-.744.591-1.189.591-.445 0-.836-.18-1.191-.595-.356-.415-.537-.911-.537-1.514 0-.58.18-1.067.537-1.485.355-.414.746-.595 1.191-.595.446 0 .837.18 1.192.595.358.418.537.905.537 1.485 0 .578-.179 1.078-.54 1.518z" stroke-width=".919"/></symbol><symbol viewBox="0 0 40 40" id="telegram" xmlns="http://www.w3.org/2000/svg"><circle cx="20" cy="20" r="19.5"/><path d="M10.797 19.677l-.008-.003-.009-.003c-.005-.002-.006-.002-.009-.007a.11.11 0 01-.013-.056.11.11 0 01.013-.056c.003-.005.004-.006.01-.008l.01-.004.012-.004 17.893-7.141-2.054 2.005-9.944 6.207c-.65.297-.872 1.076-.554 1.701l.943 3.567a.787.787 0 00.303.457c.155.111.334.15.498.134.298-.028.643-.263.662-.677l.237-1.957.004-.03v-.03c0-.21.122-.417.334-.637l8.146-7.952c.024-.017.043-.033.053-.042l.003-.002a18.939 18.939 0 00.447-.405 69.78 69.78 0 001.725-1.685c.107-.109.198-.204.259-.27a1.31 1.31 0 00.09-.11.58.58 0 00.069-.128.506.506 0 00-.16-.57l.467-.186a.125.125 0 01.042.057c.005.017.005.03.004.041v.001l-3.517 17.314h0v.005a.05.05 0 01-.011.025.048.048 0 01-.02.012.052.052 0 01-.052-.008h0l-.005-.004-4.714-3.544c-.462-.356-1.143-.422-1.601.03l-2.61 2.203a.165.165 0 01-.08.03l-.002-.006-.007-.025-1.839-6.102-.07-.235-.229-.088-4.716-1.814z"/></symbol><symbol viewBox="0 0 117 116" id="video-play-text" xmlns="http://www.w3.org/2000/svg"><path d="M109.535 65.185c1.637-.114 2.693-1.294 2.835-2.89.173-1.952-1.161-3.523-3.575-3.738-2.413-.214-4.003 1.089-4.178 3.05-.147 1.657.784 2.962 2.255 3.341l.105-1.149c-.948-.281-1.406-1.139-1.321-2.093.115-1.293 1.193-2.182 3.039-2.018 1.831.163 2.75 1.225 2.635 2.526-.086.962-.699 1.72-1.692 1.822l-.103 1.15zM111.489 69.206l-7.257-2.175-.312 1.042 5.255 1.575-.021.067-5.885.569-.259.864 4.599 3.711-.02.067-5.251-1.573-.313 1.041 7.257 2.175.398-1.329-4.948-4 .025-.085 6.334-.62.398-1.33zM101.341 84.396c2.135 1.147 4.115.564 5.043-1.162.931-1.734.322-3.703-1.812-4.85-2.132-1.145-4.113-.568-5.044 1.166-.928 1.727-.32 3.7 1.813 4.846zm.536-.997c-1.626-.874-2.047-2.208-1.43-3.355.618-1.15 1.961-1.533 3.587-.66 1.626.874 2.049 2.206 1.431 3.356-.617 1.147-1.962 1.533-3.588.659zM102.243 88.255l-1.471 1.846-5.156-4.108-.71.892 5.156 4.107-1.472 1.849.77.613 3.652-4.586-.769-.613zM91.86 90.51l-.842.771 1.8 1.964-1.146 1.05c-1.295 1.187-1.219 2.557-.274 3.588.942 1.028 2.292 1.225 3.59.036l1.991-1.825-5.118-5.585zm1.612 3.45l2.002 2.184-1.058.97c-.834.764-1.59.624-2.17-.009-.58-.632-.666-1.411.157-2.166l1.07-.98zM86.59 95.228l-3.986 2.662.546.818 3.036-2.027 1.288 1.929-2.793 1.865.544.815 2.794-1.865 1.281 1.92-3 2.002.547.819 3.95-2.638-4.206-6.3zM83.808 104.922l-2.145.983-2.748-5.992-1.036.475 2.748 5.992-2.148.986.41.894 5.33-2.444-.411-.894zM73.605 106.934l.788 2.952 1.108-.295-1.954-7.32-2.741.732c-1.63.435-2.32 1.592-1.967 2.902.346 1.309 1.503 1.9 3.133 1.465l1.633-.436zm-.248-.929l-1.633.436c-.947.253-1.614-.151-1.79-.812-.182-.679.173-1.444 1.12-1.697l1.633-.436.67 2.509zM56.355 108.544c.047 2.422 1.525 3.862 3.486 3.825 1.967-.038 3.385-1.535 3.338-3.957-.047-2.419-1.521-3.863-3.489-3.825-1.96.038-3.381 1.534-3.335 3.957zm1.132-.022c-.035-1.846.922-2.867 2.223-2.892 1.306-.025 2.298.958 2.334 2.804.035 1.845-.918 2.866-2.224 2.892-1.301.025-2.297-.959-2.333-2.804zM53.327 111.209l-2.329-.38 1.061-6.506-1.124-.183-1.062 6.506-2.332-.381-.159.972 5.787.943.158-.971zM43.94 102.368c-1.464-.499-2.837.009-3.24 1.201-.313.905.015 1.744.917 2.216l-.02.056c-.814-.063-1.502.359-1.773 1.165-.363 1.053.195 2.248 1.574 2.718 1.316.45 2.645.016 3.077-1.138l-1.046-.357c-.25.649-1.005.837-1.709.597-.732-.25-1.06-.858-.83-1.519.233-.694.945-.959 1.74-.688l.605.207.301-.882-.605-.207c-.994-.339-1.397-1.039-1.15-1.761.237-.696 1.004-.962 1.848-.674.777.265 1.247.871 1.071 1.522l1.1.375c.353-1.184-.41-2.336-1.86-2.831zM35.716 104.136l-1.525 2.648.993.572 3.781-6.565-2.458-1.416c-1.462-.842-2.767-.51-3.442.669-.679 1.171-.276 2.406 1.186 3.248l1.465.844zm-6.882-.437l.99.57 3.782-6.565-.99-.57-3.782 6.565zm7.362-.397l-1.465-.843c-.85-.49-1.037-1.246-.696-1.839.351-.609 1.142-.9 1.992-.412l1.465.844-1.296 2.25zM30.173 95.46l-2.19-1.907c-1.328-1.156-2.503-1.017-3.266-.141-.77.884-.585 1.923-.046 2.447l-.048.056c-.641-.323-1.39-.347-2.012.367-.736.845-.721 2.01.495 3.07l2.093 1.822 4.974-5.714zm-1.505-.011l-1.594 1.83-1.275-1.11c-.692-.603-.735-1.425-.262-1.97.418-.48 1.058-.555 1.886.166l1.245 1.084zm-2.18 2.502l-1.512 1.738-1.178-1.025c-.683-.595-.696-1.239-.283-1.713.48-.552 1.238-.51 1.819-.005l1.155 1.005zM19.63 84.208l-.808-1.136-1.588 4.986-4.52-.504.807 1.137 4.267.48.217.304-2.608 1.854.662.932 6.175-4.39-.663-.931-2.767 1.967-.467-.657 1.293-4.042zM11.539 77.241c-2.187 1.043-2.889 2.984-2.045 4.753.847 1.777 2.795 2.45 4.982 1.408 2.184-1.041 2.89-2.98 2.043-4.757-.843-1.77-2.793-2.447-4.98-1.404zm.487 1.022c1.666-.794 2.992-.344 3.552.831.562 1.179.075 2.488-1.59 3.283-1.667.794-2.99.347-3.552-.832-.56-1.175-.076-2.488 1.59-3.282zM14.161 73.704l-.29-1.105-3.195.84-.96-3.653 3.195-.84-.292-1.109-7.327 1.926.292 1.109 3.184-.837.96 3.653-3.184.837.29 1.105 7.327-1.926zM6.499 59.515c-1.597.377-2.449 1.712-2.331 3.31.143 1.954 1.714 3.29 4.13 3.112 2.416-.177 3.776-1.72 3.632-3.683-.122-1.66-1.252-2.797-2.764-2.935l.08 1.152c.982.124 1.573.897 1.643 1.852.095 1.295-.826 2.346-2.674 2.482-1.834.134-2.912-.766-3.008-2.068-.07-.963.412-1.81 1.376-2.07L6.5 59.514zM4.963 56.108l.254-2.346 6.554.71.123-1.133-6.554-.71.255-2.35-.978-.106-.632 5.829.978.106zM12.649 48.088l-1.74-1.215.807-2.848 2.117-.119.331-1.167-8.032.558-.36 1.27 6.546 4.688.33-1.167zm-2.574-1.798l-2.806-1.956.016-.057 3.415-.194-.625 2.207zM14.594 41.3l.5-1.028-2.972-1.444 1.65-3.397 2.972 1.444.5-1.032-6.813-3.31-.501 1.03 2.96 1.44-1.65 3.397-2.96-1.44-.5 1.029 6.814 3.31zM12.928 29.993l1.389-1.909 5.33 3.878.67-.921-5.33-3.878 1.39-1.912-.795-.579-3.45 4.742.796.579zM17.788 21.875l5.26 5.454.755-.73-1.084-6.672.05-.049 3.857 4 .823-.794-5.259-5.453-.762.734 1.088 6.68-.05.05-3.863-4.005-.815.785zM29.424 21.293l.955-.628-1.814-2.76 3.156-2.075 1.814 2.761.959-.63-4.16-6.331-.959.63 1.808 2.751-3.156 2.074-1.808-2.751-.956.627 4.16 6.332zM37.349 16.358L37.2 14.24l2.721-1.163 1.424 1.572 1.116-.477-5.484-5.895-1.214.519.47 8.037 1.116-.476zm-.22-3.132l-.244-3.412.054-.024 2.298 2.534-2.109.902zM51.23 12.033l1.374-.235L48.8 8.204l2.414-3.854-1.374.235-2.283 3.636-.369.063-.539-3.154-1.127.193L46.8 12.79l1.127-.192-.572-3.348.794-.135 3.081 2.918zM61.5 7.762c.029-2.422-1.404-3.908-3.364-3.93-1.968-.023-3.431 1.429-3.46 3.851-.028 2.42 1.402 3.908 3.37 3.931 1.96.023 3.427-1.429 3.455-3.852zM60.37 7.75c-.021 1.846-1.01 2.837-2.312 2.822-1.305-.015-2.266-1.029-2.245-2.875.021-1.845 1.006-2.836 2.312-2.821 1.301.015 2.266 1.028 2.245 2.874zM63.563 11.65l1.122.223.643-3.24 3.705.736-.644 3.24 1.125.224 1.476-7.43-1.125-.224-.641 3.229-3.705-.736.642-3.23-1.121-.222-1.477 7.43zM79.67 10.98c.363-1.601-.462-2.952-1.948-3.548-1.82-.73-3.709.094-4.611 2.343-.902 2.249-.113 4.147 1.713 4.88 1.545.62 3.063.105 3.85-1.194l-1.069-.433c-.543.827-1.496 1.018-2.385.662-1.206-.484-1.745-1.772-1.055-3.492.684-1.707 1.967-2.28 3.179-1.794.896.36 1.445 1.165 1.255 2.146l1.072.43zM83.175 10.958l2 1.253-3.498 5.587.966.605 3.498-5.588 2.003 1.254.522-.834-4.97-3.11-.521.833zM87.115 21.426l1.852-1.035 2.21 1.967-.815 1.958.906.806 3-7.471-.986-.878-7.073 3.847.906.806zm2.74-1.532l2.984-1.673.044.04-1.314 3.158-1.714-1.525zM92.403 26.178l.709.897 2.591-2.049 2.343 2.963-2.592 2.049.712.9 5.942-4.7-.711-.899-2.582 2.042-2.343-2.963 2.583-2.042-.71-.896-5.942 4.698zM103.318 29.588l1.117 2.079-5.807 3.12.54 1.003 5.806-3.12 1.119 2.083.867-.466-2.775-5.165-.867.466zM108.499 37.462l-7.197 2.366.328.998 6.481 1.923.022.067-5.278 1.735.357 1.086 7.197-2.366-.331-1.005-6.489-1.924-.022-.067 5.286-1.737-.354-1.075zM103.937 48.116l.15 1.133 3.275-.432.493 3.745-3.275.431.15 1.137 7.511-.99-.15-1.136-3.264.43-.493-3.745 3.263-.43-.149-1.133-7.511.99z"/></symbol><symbol viewBox="0 0 40 40" id="vk" xmlns="http://www.w3.org/2000/svg"><circle cx="20" cy="20" r="19.5"/><path clip-rule="evenodd" d="M30.04 14.258c.16-.522 0-.901-.708-.901h-2.35c-.592 0-.866.332-1.026.688 0 0-1.209 3.036-2.897 5.006-.547.57-.798.759-1.095.759-.16 0-.365-.19-.365-.712v-4.863c0-.617-.182-.902-.684-.902H17.22a.577.577 0 00-.593.57c0 .592.844.735.935 2.396v3.606c0 .783-.137.925-.434.925-.798 0-2.737-3.06-3.9-6.548-.228-.688-.456-.949-1.05-.949H9.806c-.684 0-.798.332-.798.688 0 .64.798 3.867 3.718 8.138 1.939 2.918 4.699 4.484 7.185 4.484 1.506 0 1.688-.356 1.688-.95v-2.206c0-.711.137-.83.616-.83.343 0 .958.19 2.35 1.59 1.597 1.66 1.87 2.42 2.76 2.42h2.35c.684 0 1.003-.357.82-1.045-.205-.688-.98-1.684-1.984-2.87-.547-.665-1.369-1.4-1.62-1.756-.342-.474-.25-.664 0-1.091-.022 0 2.852-4.223 3.148-5.647z"/></symbol><symbol viewBox="0 0 45 63" id="zipper-icon" xmlns="http://www.w3.org/2000/svg"><path d="M35.27.326c-.344-.18-.737-.191-1.123-.191-.41 0-.789.257-1.073.558L1.482 34.161c-.246.26-.473.587-.473.94s-.02.717.123 1.046a1.836 1.836 0 001.69 1.107h13.3l.003.004L8.96 60.472c0 .397-.107.823.045 1.209.15.386.429.71.788.919.36.208.78.23 1.19.23.412 0 .791-.257 1.076-.56l31.592-33.467c.246-.26.473-.587.473-.94s.02-.717-.123-1.046a1.836 1.836 0 00-1.69-1.107h-13.3l-.003-.004 7.164-23.21c0-.397.107-.824-.044-1.21-.152-.387-.498-.752-.858-.96z" stroke-linecap="round" stroke-linejoin="round"/></symbol></svg>