<svg width="45" height="63" fill="none" xmlns="http://www.w3.org/2000/svg"><path d="M35.27.326c-.344-.18-.737-.191-1.123-.191-.41 0-.789.257-1.073.558L1.482 34.161c-.246.26-.473.587-.473.94s-.02.717.123 1.046a1.836 1.836 0 001.69 1.107h13.3l.003.004L8.96 60.472c0 .397-.107.823.045 1.209.15.386.429.71.788.919.36.208.78.23 1.19.23.412 0 .791-.257 1.076-.56l31.592-33.467c.246-.26.473-.587.473-.94s.02-.717-.123-1.046a1.836 1.836 0 00-1.69-1.107h-13.3l-.003-.004 7.164-23.21c0-.397.107-.824-.044-1.21-.152-.387-.498-.752-.858-.96z" stroke="#0178F3" stroke-linecap="round" stroke-linejoin="round"/></svg>