<svg width="57" height="57" fill="none" xmlns="http://www.w3.org/2000/svg"><path d="M23.863 2.657c2.402-2.93 6.872-2.93 9.273 0l3.062 3.735a6.915 6.915 0 005.243 2.534l4.82.072c3.78.057 6.569 3.564 5.782 7.277l-1.002 4.73a6.96 6.96 0 001.295 5.69l2.948 3.827c2.314 3.002 1.318 7.377-2.063 9.074L48.91 41.76a6.94 6.94 0 00-3.628 4.564l-1.143 4.698c-.897 3.687-4.926 5.631-8.355 4.038l-4.374-2.033a6.903 6.903 0 00-5.82 0l-4.374 2.033c-3.43 1.593-7.458-.351-8.355-4.038l-1.143-4.698A6.94 6.94 0 008.09 41.76l-4.31-2.164C.397 37.9-.599 33.524 1.715 30.522l2.948-3.826a6.96 6.96 0 001.294-5.69l-1.001-4.73c-.787-3.714 2.003-7.22 5.782-7.278l4.82-.072a6.915 6.915 0 005.243-2.534l3.061-3.735z" stroke="#F64F00" stroke-width=".919"/><path d="M19.741 26.423l.007.004.006.003c.85.44 1.787.656 2.8.656 1.012 0 1.94-.217 2.773-.658h0l.003-.002c.842-.456 1.517-1.06 2.014-1.814h0l.003-.005c.5-.78.75-1.642.75-2.575a4.54 4.54 0 00-.753-2.55c-.497-.754-1.173-1.348-2.016-1.785-.832-.462-1.76-.689-2.775-.689s-1.954.228-2.805.69a5.323 5.323 0 00-1.985 1.784l.371.245-.371-.245a4.54 4.54 0 00-.754 2.55c0 .933.25 1.795.75 2.575h0l.004.005a5.576 5.576 0 001.978 1.811zm-.862 11.085l-.3.344.342.302 1.85 1.632.364.322.3-.382 8.253-10.48 8.437-9.785.299-.347-.346-.3-1.88-1.633-.367-.319-.297.385-8.005 10.326-8.65 9.935zm12.788 1.821h0l.008.005c.833.441 1.761.658 2.774.658 1.012 0 1.94-.217 2.773-.658h0l.003-.002c.842-.456 1.517-1.06 2.014-1.813a4.54 4.54 0 00.754-2.55 4.54 4.54 0 00-.752-2.548 5.177 5.177 0 00-2.017-1.817c-.833-.462-1.762-.69-2.775-.69-1.015 0-1.944.228-2.778.69a5.478 5.478 0 00-2.011 1.811l-.002.003a4.54 4.54 0 00-.754 2.55c0 .934.251 1.788.754 2.55h0l.005.008a5.855 5.855 0 002.004 1.803zm3.973-2.877h0l-.007.009c-.329.404-.715.587-1.184.587-.446 0-.837-.18-1.192-.596a2.195 2.195 0 01-.537-1.484c0-.58.18-1.067.537-1.484h0l.006-.007c.357-.434.747-.618 1.186-.618.445 0 .836.18 1.191.595.356.415.537.911.537 1.514 0 .58-.18 1.067-.537 1.484zM23.742 23.55c-.354.412-.744.591-1.189.591-.445 0-.836-.18-1.191-.595-.356-.415-.537-.911-.537-1.514 0-.58.18-1.067.537-1.485.355-.414.746-.595 1.191-.595.446 0 .837.18 1.192.595.358.418.537.905.537 1.485 0 .578-.179 1.078-.54 1.518z" stroke="#F64F00" stroke-width=".919"/></svg>