<svg width="1098" height="119" fill="none" xmlns="http://www.w3.org/2000/svg"><path d="M569.689 1h99.834l-20.922 44.316c-8.921 16.867-35.532 29.441-70.143 29.441H504.93l-20.46 43.09h-56.3l34.611-72.991h129.83l6.305-13.188H469.241C477.548 14.188 504.621 1 540 1h29.689zm313.495 0H753.509c-35.38 0-62.452 13.188-70.759 30.668h129.675l-6.308 13.188H676.445l-14.153 29.901h56.147l-94.143 43.09h95.833l65.685-30.209-14.305 30.209c34.608 0 61.222-12.574 70.143-29.442l20.612-43.549 6.308-13.188 3.537-7.667L883.184 1zM142.673 1h99.678l-23.843 50.603-31.38 6.593 24.15 8.28-10.152 21.469C192.512 105.119 165.592 118 130.674 118H1l20.459-43.089 49.993 13.187h73.528l6.307-13.187H77.759L29.304 58.196 91.756 45.01h73.529l6.306-13.187H98.063L35.764 45.009c.462-1.073 2-4.293 6.307-13.187C50.378 14.34 77.451 1.154 112.83 1.154L142.673 1zm712.822 116.847l34.611-72.991h56.299l-20.303 43.089h73.528l26.61-56.277H896.569C907.644 10.508 938.101 1 967.325 1H1097l-41.23 86.945h27.54c-8.62 17.021-35.53 29.902-70.45 29.902H855.495zm-640.986 0l34.61-72.838h129.828l6.308-13.187H255.426c8.306-17.481 35.379-30.668 70.758-30.668h129.675l-34.611 72.99s2-4.14-6.304 13.188c-8.307 17.48-35.38 30.515-70.608 30.668l20.458-43.089h-73.527L270.808 118h-56.299v-.153z" stroke="#333"/></svg>