<svg width="132" height="32" fill="none" xmlns="http://www.w3.org/2000/svg"><path d="M35.761 23.126c1.611 0 2.45-.49 2.45-1.449 0-.958-.839-1.448-2.45-1.448h-6.399v2.897h6.4zm-6.399 8.644h-2.927V17.355h9.803c3.245 0 4.901 1.426 4.901 4.322 0 2.875-1.656 4.323-4.901 4.323h-6.876v5.77zm-26.412 0H0V17.355h2.95V31.77zm94.01-14.415h2.926v9.603c0 3.208-1.633 4.813-4.9 4.813h-4.902c-3.268 0-4.901-1.605-4.901-4.813v-9.603h2.95v9.224c0 1.537.748 2.317 2.337 2.317h4.107c1.565 0 2.36-.78 2.36-2.317l.022-9.224zM71 23.125c1.612 0 2.451-.49 2.451-1.448s-.817-1.448-2.45-1.448h-6.4v2.897h6.4zM66.1 26h-1.498v5.77h-2.905V17.355H71.5c3.245 0 4.901 1.426 4.901 4.322 0 2.875-1.656 4.323-4.901 4.323h-1l6.853 5.77h-4.402L66.099 26zm16.155 5.77h-2.95V17.355h2.95V31.77zm18.721.023l4.833-14.438h2.927l-4.811 14.438h-2.949zm14.703 0h-2.949l4.81-14.438h2.95l-4.811 14.438zm-8.804 0l4.811-14.438h2.927l-4.811 14.415-2.927.023zm-101.906.044L9.78 17.4h2.95L7.92 31.837H4.97zm14.681 0H16.7L21.512 17.4h2.927l-4.787 14.438zm-8.804 0l4.81-14.438h2.928l-4.81 14.438h-2.928zM43.825 32v-2.92h14.683V32H43.825zm0-8.782h14.683v2.92H43.825v-2.92zm0-5.84h14.683v2.92H43.825v-2.92zM.855 5.48c-.12 0-.184-.02-.192-.061a1.195 1.195 0 01-.012-.205V.555C.659.491.707.46.795.46h1.12c.507 0 .925.084 1.254.253.33.161.57.418.723.772.16.346.24.801.24 1.364 0 .5-.06.917-.18 1.255-.112.33-.273.596-.482.797-.2.201-.434.35-.699.446a2.646 2.646 0 01-.843.133H.855zM.518 8.906V.652A.24.24 0 01.554.507C.586.475.643.459.723.459H1.3c.097 0 .153.032.169.096l.024.097v8.062c0 .064-.016.108-.048.132-.024.025-.105.04-.241.049a12.95 12.95 0 01-.687.012zm.952-4.333h.554c.225 0 .41-.06.554-.181.153-.12.27-.314.35-.58.08-.273.12-.635.12-1.085 0-.282-.028-.527-.084-.737a.883.883 0 00-.301-.494c-.137-.121-.325-.182-.566-.182H1.47v3.259zm4.944 4.454c-.225 0-.441-.02-.65-.06a1.207 1.207 0 01-.543-.23 1.318 1.318 0 01-.385-.554c-.097-.242-.145-.572-.145-.99 0-.418.044-.756.133-1.014.088-.265.209-.466.361-.603a1.15 1.15 0 01.518-.29c.193-.048.39-.072.59-.072.13 0 .278.012.447.036.176.024.325.064.445.12v-.953c0-.193-.032-.338-.096-.434a.45.45 0 00-.253-.218.95.95 0 00-.398-.072 4.718 4.718 0 00-1.602.278.854.854 0 01-.109-.29 1.854 1.854 0 01-.024-.278.75.75 0 01.024-.18.29.29 0 01.109-.145c.104-.065.321-.133.65-.206.33-.08.723-.12 1.181-.12.522 0 .9.108 1.133.326.24.217.361.599.361 1.146v.64c0 .458-.004.921-.012 1.388 0 .458-.004.893-.012 1.303a18.37 18.37 0 01-.048 1.062c-.16.097-.381.19-.663.278a3.394 3.394 0 01-1.012.132zm.097-.82c.128 0 .253-.02.373-.06a.566.566 0 00.253-.145c.016-.13.024-.306.024-.531.008-.226.012-.463.012-.713.008-.249.012-.482.012-.7a.943.943 0 00-.289-.084 1.845 1.845 0 00-.277-.024c-.128 0-.249.016-.361.048a.532.532 0 00-.277.17.851.851 0 00-.193.361 2.302 2.302 0 00-.073.64c0 .217.017.394.049.53a.83.83 0 00.168.327c.073.072.157.12.253.145.097.024.205.036.326.036zm3.825.82c-.249 0-.482-.032-.698-.096a1.475 1.475 0 01-.519-.241c-.128-.113-.192-.234-.192-.363 0-.064.012-.152.036-.265.032-.113.08-.221.144-.326.17.129.358.237.567.326.217.08.43.12.638.12.145 0 .286-.024.422-.072a.766.766 0 00.361-.302c.097-.144.145-.358.145-.64 0-.345-.08-.595-.24-.747-.162-.153-.39-.23-.688-.23H9.83c-.16 0-.24-.088-.24-.265v-.531h1.024c.16-.161.269-.322.325-.483.064-.169.096-.346.096-.531 0-.25-.06-.443-.18-.58-.113-.144-.294-.217-.543-.217-.2 0-.39.045-.566.133-.169.08-.321.177-.458.29a1.528 1.528 0 01-.156-.266.676.676 0 01-.06-.253c0-.097.043-.201.132-.314.096-.113.245-.21.446-.29.2-.088.466-.132.795-.132.53 0 .92.12 1.169.362.249.241.373.571.373.99 0 .297-.06.575-.18.832a1.77 1.77 0 01-.482.652c.297.153.522.35.674.591.153.234.23.555.23.966 0 .305-.045.575-.133.808a1.585 1.585 0 01-.976.954c-.225.08-.486.12-.784.12zm3.267 2.257c-.169 0-.29-.032-.362-.096-.072-.057-.108-.165-.108-.326V3.234c.24-.152.514-.27.82-.35.304-.088.618-.132.939-.132.402 0 .747.072 1.036.217.297.137.526.39.687.76.16.362.24.873.24 1.533 0 .644-.035 1.19-.108 1.641a4.76 4.76 0 01-.289 1.087c-.12.281-.26.498-.421.651a1.303 1.303 0 01-.482.302 1.495 1.495 0 01-.494.084c-.217 0-.41-.032-.579-.096a1.003 1.003 0 01-.373-.241v2.51a2.34 2.34 0 01-.253.06 1.413 1.413 0 01-.253.024zm1.156-3.138a.711.711 0 00.314-.084c.112-.056.22-.177.325-.362.112-.185.2-.463.265-.833.072-.37.108-.869.108-1.496 0-.483-.036-.85-.108-1.099-.064-.257-.165-.43-.301-.519a.876.876 0 00-.518-.144c-.273 0-.518.076-.735.229v3.91c.088.145.188.25.3.314a.772.772 0 00.35.084zm4.493.881c-.225 0-.442-.02-.651-.06a1.207 1.207 0 01-.542-.23 1.319 1.319 0 01-.386-.554c-.096-.242-.144-.572-.144-.99 0-.418.044-.756.132-1.014.088-.265.209-.466.362-.603a1.15 1.15 0 01.518-.29 2.42 2.42 0 01.59-.072c.129 0 .277.012.446.036.177.024.325.064.446.12v-.953c0-.193-.032-.338-.097-.434a.45.45 0 00-.253-.218.95.95 0 00-.397-.072 4.718 4.718 0 00-1.603.278.855.855 0 01-.108-.29 1.849 1.849 0 01-.024-.278c0-.056.008-.116.024-.18a.29.29 0 01.108-.145c.105-.065.322-.133.65-.206.33-.08.724-.12 1.182-.12.522 0 .9.108 1.132.326.241.217.362.599.362 1.146v.64c0 .458-.004.921-.012 1.388 0 .458-.004.893-.012 1.303-.008.402-.024.756-.049 1.062a3.16 3.16 0 01-.662.278 3.394 3.394 0 01-1.012.132zm.096-.82c.129 0 .253-.02.374-.06a.566.566 0 00.253-.145c.016-.13.024-.306.024-.531a20.1 20.1 0 00.012-.713c.008-.249.012-.482.012-.7a.942.942 0 00-.29-.084 1.844 1.844 0 00-.277-.024c-.128 0-.248.016-.361.048a.532.532 0 00-.277.17.852.852 0 00-.193.361 2.307 2.307 0 00-.072.64c0 .217.016.394.048.53a.82.82 0 00.169.327c.072.072.156.12.253.145.096.024.205.036.325.036zm4.416.82c-.482 0-.863-.096-1.145-.29-.273-.2-.465-.546-.578-1.037-.104-.499-.157-1.19-.157-2.076v-1.17c0-.781.045-1.409.133-1.883.088-.475.241-.85.458-1.123.217-.273.522-.487.916-.64L25.51 0c.08.217.133.386.157.507a.5.5 0 01.024.253.369.369 0 01-.12.17.79.79 0 01-.302.156l-1.446.507c-.313.105-.558.254-.735.447-.168.193-.289.45-.361.772-.072.322-.113.74-.12 1.255.16-.458.349-.792.566-1.002.217-.209.526-.313.928-.313.361 0 .662.096.903.29.25.184.434.494.555.929.128.426.192 1.01.192 1.75 0 .788-.076 1.428-.229 1.919-.152.482-.377.836-.674 1.062-.298.217-.66.325-1.085.325zm.012-.832a.739.739 0 00.374-.097.848.848 0 00.289-.362c.08-.177.14-.418.18-.724.049-.314.073-.704.073-1.17 0-.588-.032-1.043-.096-1.364-.057-.33-.145-.56-.265-.688a.61.61 0 00-.482-.206.655.655 0 00-.494.218c-.137.136-.245.37-.326.7-.072.33-.108.784-.108 1.363 0 .644.032 1.135.096 1.473.064.338.16.567.29.688a.688.688 0 00.47.169zm4.551.832a2.58 2.58 0 01-.82-.12 1.152 1.152 0 01-.59-.435c-.16-.217-.28-.53-.361-.941-.08-.418-.12-.966-.12-1.641 0-1.103.176-1.9.53-2.39.353-.499.843-.748 1.47-.748.425 0 .775.088 1.048.265.28.177.49.491.626.942.137.45.205 1.082.205 1.894 0 1.127-.169 1.94-.506 2.438-.337.491-.831.736-1.482.736zm.024-.832c.177 0 .33-.06.458-.181.137-.13.245-.362.325-.7.08-.338.12-.821.12-1.449 0-.643-.031-1.126-.096-1.448-.064-.33-.156-.551-.277-.664a.677.677 0 00-.482-.169.665.665 0 00-.47.194c-.136.12-.244.35-.325.687-.072.338-.108.821-.108 1.449 0 .49.02.889.06 1.194.04.306.092.54.157.7a.635.635 0 00.277.314.907.907 0 00.361.073zm3.629.712v-5.19h-1.314c0-.25.004-.434.012-.555.008-.12.028-.197.06-.23.033-.04.08-.06.145-.06h3.386c0 .25-.004.439-.012.568-.008.12-.028.197-.06.229-.025.032-.073.048-.145.048h-1.096v4.997c0 .064-.013.108-.037.132-.024.025-.104.04-.24.049-.137.008-.37.012-.7.012zm4.427.12c-.225 0-.441-.02-.65-.06a1.207 1.207 0 01-.542-.23 1.318 1.318 0 01-.386-.554c-.096-.242-.145-.572-.145-.99 0-.418.044-.756.133-1.014.088-.265.209-.466.361-.603a1.15 1.15 0 01.519-.29 2.42 2.42 0 01.59-.072c.128 0 .277.012.446.036.176.024.325.064.446.12v-.953c0-.193-.033-.338-.097-.434a.45.45 0 00-.253-.218.95.95 0 00-.398-.072 4.717 4.717 0 00-1.602.278.855.855 0 01-.108-.29 1.849 1.849 0 01-.025-.278c0-.056.008-.116.025-.18a.29.29 0 01.108-.145c.104-.065.321-.133.65-.206.33-.08.724-.12 1.181-.12.523 0 .9.108 1.133.326.241.217.361.599.361 1.146v.64c0 .458-.004.921-.012 1.388 0 .458-.004.893-.012 1.303-.008.402-.024.756-.048 1.062a3.16 3.16 0 01-.663.278 3.395 3.395 0 01-1.012.132zm.097-.82c.128 0 .253-.02.373-.06a.567.567 0 00.253-.145c.016-.13.024-.306.024-.531a20.1 20.1 0 00.012-.713c.009-.249.013-.482.013-.7a.942.942 0 00-.29-.084 1.844 1.844 0 00-.277-.024c-.128 0-.249.016-.361.048a.532.532 0 00-.277.17.852.852 0 00-.193.361 2.307 2.307 0 00-.072.64c0 .217.016.394.048.53.04.138.096.246.168.327.073.072.157.12.253.145.097.024.205.036.326.036zm2.705.7V3.065c0-.064.012-.108.036-.132.024-.024.105-.04.241-.049.145-.008.382-.012.71-.012v2.595h1.58V3.065c0-.064.011-.108.035-.132.033-.024.117-.04.254-.049.144-.008.377-.012.698-.012v5.842c0 .064-.012.108-.036.132-.024.025-.104.04-.24.049a14.07 14.07 0 01-.712.012V6.312h-1.578v2.402c0 .064-.012.108-.036.132-.024.025-.105.04-.241.049-.137.008-.374.012-.711.012zm6.509.12a2.58 2.58 0 01-.82-.12 1.152 1.152 0 01-.59-.435c-.16-.217-.28-.53-.361-.941-.08-.418-.12-.966-.12-1.641 0-1.103.176-1.9.53-2.39.353-.499.843-.748 1.47-.748.425 0 .775.088 1.048.265.281.177.49.491.626.942.137.45.205 1.082.205 1.894 0 1.127-.169 1.94-.506 2.438-.337.491-.831.736-1.482.736zm.024-.832c.177 0 .33-.06.458-.181.137-.13.245-.362.325-.7.08-.338.12-.821.12-1.449 0-.643-.031-1.126-.096-1.448-.064-.33-.156-.551-.277-.664a.677.677 0 00-.482-.169.665.665 0 00-.47.194c-.136.12-.245.35-.325.687-.072.338-.108.821-.108 1.449 0 .49.02.889.06 1.194.04.306.092.54.157.7a.635.635 0 00.277.314.907.907 0 00.361.073zm4.738.712V3.065c0-.056.02-.1.06-.132.048-.04.136-.06.265-.06h1.108c.314 0 .615.036.904.108.29.064.526.197.711.398.185.193.277.491.277.893 0 .258-.04.48-.12.664-.08.185-.177.334-.29.447a1.188 1.188 0 01-.337.241.876.876 0 01-.277.097c.064.008.129.02.193.036.072.008.136.02.193.036.048.016.116.044.204.084a.935.935 0 01.302.182c.104.08.192.197.265.35.08.144.12.337.12.579 0 .362-.076.688-.229.977a1.65 1.65 0 01-.699.688c-.313.17-.715.254-1.205.254H50.48zm1.458-.797c.32 0 .57-.096.747-.29.184-.193.277-.49.277-.893a1 1 0 00-.097-.47.524.524 0 00-.289-.266c-.136-.056-.325-.084-.566-.084-.12 0-.233.004-.337.012a3.09 3.09 0 01-.254.012v1.967c.08.008.17.012.266.012h.253zm-.519-2.667c.08.008.161.012.241.012h.266a.928.928 0 00.421-.096.737.737 0 00.313-.314c.089-.153.133-.354.133-.604 0-.193-.028-.342-.084-.446a.475.475 0 00-.205-.242.564.564 0 00-.29-.096 4.724 4.724 0 00-.337-.012h-.217c-.064 0-.12.004-.168.012h-.073v1.786zM132 12.995c0 2.38-1.819 4.248-4.206 4.248a4.212 4.212 0 01-4.228-4.248c0-2.333 1.864-4.2 4.228-4.2 2.387 0 4.206 1.867 4.206 4.2zm-7.366 0c0 1.867 1.342 3.36 3.206 3.36 1.796 0 3.114-1.493 3.114-3.336 0-1.867-1.318-3.384-3.137-3.384-1.841 0-3.183 1.517-3.183 3.36zm2.524 2.194h-.955v-4.2c.364-.07.909-.117 1.568-.117.773 0 1.114.116 1.433.303.227.187.409.513.409.933 0 .467-.341.817-.841.98v.047c.409.164.614.467.75 1.027.114.63.205.887.296 1.05h-1.023c-.114-.163-.205-.536-.319-1.026-.068-.467-.318-.677-.841-.677h-.455l-.022 1.68zm.022-2.38h.455c.523 0 .955-.187.955-.607 0-.373-.273-.63-.864-.63-.25 0-.432.023-.523.046v1.19h-.023z" fill="#333"/></svg>