<svg width="261" height="28" fill="none" xmlns="http://www.w3.org/2000/svg"><path fill-rule="evenodd" clip-rule="evenodd" d="M135.427.5h23.774l-4.982 10.227c-2.125 3.892-8.462 6.794-16.704 6.794h-17.51l-4.872 9.944h-13.407l8.242-16.844h30.917l1.502-3.044h-30.881C113.485 3.543 119.932.5 128.357.5h7.07zm74.655 0h-30.88c-8.426 0-14.873 3.043-16.851 7.077h30.881l-1.503 3.044H160.85l-3.371 6.9h13.371l-22.419 9.944h22.821l15.643-6.972-3.407 6.972c8.241 0 14.579-2.902 16.704-6.795l4.908-10.05 1.503-3.043.842-1.769L210.082.5zM33.738.5h23.737l-5.678 11.678-7.473 1.521 5.751 1.911-2.417 4.954C45.606 24.527 39.196 27.5 30.88 27.5H0l4.872-9.944L16.777 20.6h17.51l1.502-3.044H18.28L6.74 13.7l14.873-3.043h17.51l1.501-3.043h-17.51L8.28 10.656c.11-.248.476-.99 1.502-3.043C11.759 3.579 18.206.535 26.63.535L33.738.5zm169.75 26.965l8.242-16.844h13.408l-4.835 9.943h17.509l6.337-12.987H213.27C215.907 2.694 223.16.5 230.119.5H261l-9.817 20.064h6.557c-2.052 3.928-8.462 6.9-16.777 6.9h-37.475zm-152.643 0l8.242-16.809h30.917l1.502-3.043H60.589C62.567 3.579 69.014.535 77.439.535h30.881l-8.243 16.844s.477-.955-1.501 3.044c-1.978 4.034-8.425 7.042-16.814 7.077l4.871-9.944h-17.51l-4.87 9.944H50.845v-.035z" fill="#333"/></svg>