<svg width="26" height="26" fill="none" xmlns="http://www.w3.org/2000/svg"><path d="M19.55 22.073h0l-.006.006c-.29.298-.69.42-1.14.421-2.226-.07-4.367-1.166-6.19-2.349-2.983-2.172-5.69-4.844-7.385-8.046-.676-1.4-1.392-3.05-1.325-4.444v-.01l.001-.008c.006-.512.144-.92.41-1.163l.008-.007.008-.008 2.804-2.803c.201-.166.333-.171.405-.156.085.017.215.089.352.295l2.252 4.27a.749.749 0 01-.162.846L8.545 9.953l-.027.028-.023.031c-.11.152-.2.35-.202.587v.066l.016.064c.435 1.684 1.73 3.187 2.817 4.184.162.15.335.315.515.488.374.359.782.75 1.2 1.09.629.511 1.355.974 2.205 1.157.12.032.272.06.43.052a.882.882 0 00.569-.225l.008-.007.008-.008 1.181-1.201c.328-.236.69-.27.883-.159l.116.068h.02l3.967 2.343c.333.212.336.562.138.768l-2.816 2.794z" stroke="#BCBCBC"/></svg>